<svg width="62" height="52" viewBox="0 0 62 52" fill="none" xmlns="http://www.w3.org/2000/svg">
<path d="M61.6667 29.7099V17.2402C61.6667 16.816 61.4987 16.4091 61.1996 16.1086C60.9005 15.8081 60.4947 15.6386 60.071 15.6372H48.5704C46.9207 10.5285 43.4994 6.17947 38.9253 3.37691C34.3513 0.574349 28.9265 -0.496732 23.6322 0.357403C18.3379 1.21154 13.5237 3.93449 10.0604 8.03373C6.59711 12.133 4.71336 17.3378 4.74988 22.7069C4.74966 24.2877 4.91396 25.8643 5.24012 27.4111H2.69941C2.47822 27.4111 2.25919 27.4547 2.05484 27.5395C1.85049 27.6242 1.6648 27.7484 1.5084 27.905C1.35199 28.0616 1.22792 28.2475 1.14328 28.4521C1.05863 28.6567 1.01506 28.876 1.01506 29.0975C1.01574 29.9506 1.08303 30.8023 1.2163 31.6449C0.936591 31.9563 0.781863 32.3604 0.781915 32.7792C0.781882 33.6862 0.856303 34.5916 1.00443 35.4864C0.785756 35.7793 0.667306 36.1351 0.66667 36.5009C0.655022 39.7556 1.61044 42.9403 3.41143 45.6499C5.21242 48.3596 7.77759 50.4717 10.7807 51.7177C10.9866 51.8035 11.2075 51.8476 11.4305 51.8473H24.3114C24.5344 51.8476 24.7553 51.8035 24.9612 51.7177C28.3598 50.3109 31.1849 47.7972 32.9796 44.5833C37.6532 43.3257 41.7979 40.594 44.7993 36.7929V44.4767C44.1564 44.6866 43.5789 45.0599 43.1232 45.5601C42.6674 46.0602 42.3491 46.6702 42.1992 47.3303H41.4607C41.0658 47.3308 40.6873 47.4881 40.4081 47.7676C40.1289 48.0472 39.9718 48.4262 39.9714 48.8215V50.5079C39.9718 50.9032 40.1289 51.2822 40.4081 51.5618C40.6873 51.8413 41.0658 51.9986 41.4607 51.9991H59.3786C59.7735 51.9986 60.152 51.8413 60.4312 51.5618C60.7104 51.2822 60.8675 50.9032 60.8679 50.5079V48.8215C60.8675 48.4262 60.7104 48.0472 60.4312 47.7676C60.152 47.4881 59.7735 47.3308 59.3786 47.3303H58.6437C58.4938 46.6702 58.1754 46.0602 57.7197 45.5601C57.264 45.0599 56.6865 44.6866 56.0436 44.4767V36.2089C57.6053 35.9849 59.0339 35.2043 60.0668 34.0104C61.0998 32.8165 61.6679 31.2895 61.6667 29.7099ZM32.9352 29.1969C32.9308 29.8255 32.8855 30.4532 32.7996 31.0759H2.93965C2.85382 30.4532 2.80851 29.8255 2.80402 29.1969H32.9352ZM24.2901 50.0552H11.4492C9.70334 49.3287 8.11538 48.2691 6.77376 46.9354H28.969C27.6277 48.2703 26.0397 49.3312 24.2936 50.0588L24.2901 50.0552ZM30.4956 45.146H5.241C3.43962 42.6526 2.4648 39.6563 2.45385 36.579H23.1837C23.4207 36.579 23.648 36.4847 23.8156 36.3169C23.9832 36.1491 24.0773 35.9216 24.0773 35.6843C24.0773 35.447 23.9832 35.2194 23.8156 35.0517C23.648 34.8839 23.4207 34.7896 23.1837 34.7896H2.70562C2.61703 34.1504 2.57054 33.5061 2.56644 32.8609H33.1737C33.1696 33.5061 33.1231 34.1504 33.0345 34.7896H27.9496C27.7126 34.7896 27.4853 34.8839 27.3177 35.0517C27.1501 35.2194 27.056 35.447 27.056 35.6843C27.056 35.9216 27.1501 36.1491 27.3177 36.3169C27.4853 36.4847 27.7126 36.579 27.9496 36.579H33.2898C33.2792 39.6577 32.3037 42.6554 30.5009 45.1495L30.4956 45.146ZM33.9919 42.3945C34.7067 40.5099 35.0723 38.5106 35.0708 36.4947C35.0708 36.1284 34.9527 35.7719 34.7339 35.4784C34.8821 34.5836 34.9565 33.6782 34.9565 32.7712C34.9565 32.3524 34.8018 31.9483 34.5221 31.6369C34.655 30.7949 34.7219 29.9438 34.7224 29.0913C34.7224 29.0718 34.7224 29.0522 34.7224 29.0327C36.2699 27.1745 37.0838 24.8131 37.0101 22.3948C36.9365 19.9765 35.9804 17.6691 34.3226 15.9088C34.159 15.7364 33.9336 15.6361 33.6961 15.63C33.4586 15.624 33.2285 15.7126 33.0562 15.8764C32.884 16.0403 32.7839 16.2659 32.7778 16.5037C32.7717 16.7415 32.8602 16.9719 33.0239 17.1443C34.3264 18.5263 35.1022 20.3228 35.2157 22.2195C35.3291 24.1162 34.7729 25.9925 33.6444 27.5203C33.4536 27.4462 33.2507 27.408 33.046 27.4075H20.7237C19.7491 26.0642 19.2135 24.4519 19.1904 22.7918C19.1672 21.1316 19.6576 19.5049 20.5943 18.1349C21.531 16.7649 22.8682 15.7185 24.4223 15.1395C25.9765 14.5604 27.6715 14.4769 29.2749 14.9005C29.389 14.933 29.5085 14.9425 29.6263 14.9283C29.7441 14.9141 29.8579 14.8766 29.961 14.8179C30.0642 14.7592 30.1546 14.6805 30.2271 14.5864C30.2996 14.4923 30.3526 14.3847 30.3831 14.2699C30.4136 14.1551 30.4209 14.0354 30.4047 13.9177C30.3885 13.8 30.349 13.6867 30.2886 13.5845C30.2282 13.4822 30.148 13.3931 30.0528 13.3221C29.9576 13.2512 29.8493 13.2 29.7341 13.1715C27.8784 12.6909 25.923 12.7634 24.1079 13.3801C22.2928 13.9968 20.6971 15.1309 19.5168 16.6429C18.3365 18.155 17.623 19.9793 17.4638 21.8918C17.3047 23.8042 17.7068 25.7216 18.6209 27.4084H7.07074C6.36912 24.3634 6.35984 21.1994 7.0436 18.1503C7.72735 15.1011 9.08666 12.2448 11.0211 9.79231C12.9555 7.33983 15.4156 5.35389 18.2196 3.98122C21.0235 2.60856 24.0997 1.88426 27.2209 1.86184C31.4851 1.87547 35.6414 3.20557 39.123 5.67077C42.6046 8.13596 45.2422 11.6163 46.676 15.6372H40.771C40.3473 15.6386 39.9414 15.8081 39.6423 16.1086C39.3432 16.4091 39.1753 16.816 39.1753 17.2402V29.709C39.1747 31.0218 39.567 32.3046 40.3016 33.392C41.0363 34.4794 42.0794 35.3214 43.2966 35.8094C40.8717 38.8314 37.6513 41.1143 33.999 42.4007L33.9919 42.3945ZM45.6875 46.1303C46.042 46.152 46.3826 46.276 46.6681 46.4874C46.9537 46.6988 47.172 46.9885 47.2965 47.3215H44.0785C44.2044 46.9889 44.4239 46.6999 44.7104 46.4896C44.9969 46.2793 45.3382 46.1567 45.6928 46.1365L45.6875 46.1303ZM46.5873 44.4741V36.2089C48.0546 36.0027 49.4074 35.3006 50.4214 34.2189C51.435 35.2998 52.7872 36.0013 54.2538 36.2071V44.4732C53.6109 44.683 53.0333 45.0563 52.5776 45.5564C52.1218 46.0566 51.8035 46.6666 51.6537 47.3268H49.1865C49.0366 46.6669 48.7184 46.0571 48.2628 45.5571C47.8073 45.0571 47.23 44.684 46.5873 44.4741ZM49.628 50.2106H41.7594V49.1171H49.6271L49.628 50.2106ZM59.0825 49.1171V50.2106H51.4143V49.1171H59.0825ZM56.7581 47.3277H53.5401C53.6465 46.9836 53.8601 46.6828 54.1496 46.469C54.4392 46.2553 54.7894 46.14 55.1491 46.14C55.5088 46.14 55.8591 46.2553 56.1486 46.469C56.4381 46.6828 56.6517 46.9836 56.7581 47.3277ZM55.1474 34.4852C54.4438 34.4843 53.7495 34.3256 53.1152 34.0207C52.481 33.7158 51.9231 33.2725 51.4826 32.7233C51.9629 31.7924 52.2131 30.7596 52.2122 29.7117V26.6699C52.2122 26.4327 52.118 26.2051 51.9504 26.0373C51.7828 25.8695 51.5556 25.7753 51.3186 25.7753C51.0816 25.7753 50.8543 25.8695 50.6867 26.0373C50.5191 26.2051 50.425 26.4327 50.425 26.6699V29.7099C50.425 30.9665 49.9264 32.1716 49.039 33.0602C48.1515 33.9487 46.9479 34.4479 45.6928 34.4479C44.4378 34.4479 43.2342 33.9487 42.3467 33.0602C41.4593 32.1716 40.9607 30.9665 40.9607 29.7099V17.4266H50.425V21.8983C50.425 22.1356 50.5191 22.3631 50.6867 22.5309C50.8543 22.6987 51.0816 22.793 51.3186 22.793C51.5556 22.793 51.7828 22.6987 51.9504 22.5309C52.118 22.3631 52.2122 22.1356 52.2122 21.8983V17.4266H59.8795V29.7099C59.8833 30.9711 59.3871 32.1823 58.4999 33.0775C57.6127 33.9728 56.407 34.4791 55.1474 34.4852Z" fill="#7C5368"/>
</svg>
