<svg width="20" height="20" viewBox="0 0 20 20" fill="none" xmlns="http://www.w3.org/2000/svg">
<path d="M1.66663 1.66663H2.7551C2.96011 1.66663 3.06262 1.66663 3.14511 1.70433C3.21781 1.73755 3.27941 1.79098 3.32258 1.85825C3.37157 1.93458 3.38607 2.03606 3.41506 2.23901L3.80948 4.99996M3.80948 4.99996L4.68606 11.4428C4.7973 12.2604 4.85292 12.6692 5.04838 12.9769C5.22061 13.2481 5.46753 13.4637 5.75942 13.5978C6.09068 13.75 6.50325 13.75 7.32838 13.75H14.46C15.2454 13.75 15.6381 13.75 15.9591 13.6086C16.2421 13.484 16.4848 13.2832 16.6602 13.0285C16.8591 12.7396 16.9326 12.3538 17.0795 11.5823L18.1825 5.79137C18.2343 5.5198 18.2601 5.38401 18.2227 5.27788C18.1898 5.18477 18.1249 5.10636 18.0396 5.05664C17.9423 4.99996 17.8041 4.99996 17.5277 4.99996H3.80948ZM8.33329 17.5C8.33329 17.9602 7.9602 18.3333 7.49996 18.3333C7.03972 18.3333 6.66663 17.9602 6.66663 17.5C6.66663 17.0397 7.03972 16.6666 7.49996 16.6666C7.9602 16.6666 8.33329 17.0397 8.33329 17.5ZM15 17.5C15 17.9602 14.6269 18.3333 14.1666 18.3333C13.7064 18.3333 13.3333 17.9602 13.3333 17.5C13.3333 17.0397 13.7064 16.6666 14.1666 16.6666C14.6269 16.6666 15 17.0397 15 17.5Z" stroke="white" strokeWidth="1.5" strokeLinecap="round" strokeLinejoin="round"/>
</svg>
