<svg width="19" height="10" viewBox="0 0 19 10" fill="none" xmlns="http://www.w3.org/2000/svg">
<path d="M13.6916 0.0930826C15.0502 0.0930826 16.2089 0.583436 17.1709 1.56101C18.1328 2.54171 18.6138 3.7223 18.6138 5.1059V9.95317H16.9772V5.1059C16.9772 4.17829 16.6587 3.38811 16.0246 2.73223C15.3813 2.08572 14.6036 1.7609 13.6947 1.7609C12.7921 1.7609 12.0175 2.08572 11.3741 2.73223C10.7307 3.38811 10.409 4.17829 10.409 5.1059V9.95317H8.78183V5.1059C8.78183 4.17829 8.46014 3.38811 7.81675 2.73223C7.17336 2.08572 6.3988 1.7609 5.49618 1.7609C4.59356 1.7609 3.81899 2.08572 3.1756 2.73223C2.53221 3.38811 2.21052 4.17829 2.21052 5.1059V9.96567H0.583313V0.224263H2.21052V1.38298C3.15062 0.520969 4.24376 0.0899658 5.49618 0.0899658C6.33321 0.0899658 7.12339 0.296094 7.86047 0.708362C8.56945 1.10501 9.14725 1.65159 9.59388 2.34182C10.0405 1.64846 10.6245 1.10501 11.3398 0.708362C12.0675 0.299217 12.8514 0.0930826 13.6916 0.0930826Z" fill="#57C8CE"/>
</svg>
