<svg width="11" height="11" viewBox="0 0 11 11" fill="none" xmlns="http://www.w3.org/2000/svg">
<path d="M5.63105 10.9688C4.25058 10.9688 3.06999 10.4784 2.08617 9.49461C1.10235 8.51079 0.612 7.3302 0.612 5.94972C0.612 4.56925 1.10235 3.38866 2.08617 2.40484C3.06999 1.42101 4.25058 0.930664 5.63105 0.930664C7.01153 0.930664 8.19212 1.42101 9.17594 2.40484C10.1598 3.38866 10.6501 4.56925 10.6501 5.94972V6.77425H5.63105V5.12831H8.89485C8.70745 4.39122 8.31392 3.78532 7.71426 3.30746C7.10835 2.8296 6.41499 2.59223 5.63418 2.59223C4.7097 2.59223 3.91952 2.92018 3.26051 3.57918C2.60151 4.23819 2.27356 5.02837 2.27356 5.95285C2.27356 6.87733 2.60151 7.6675 3.26051 8.32651C3.91952 8.98551 4.7097 9.31346 5.63418 9.31346V10.9688H5.63105Z" fill="#231F20"/>
</svg>
